/* XPM */
static char * none_xpm[] = {
"16 16 25 1",
" 	c None",
".	c #000000",
"+	c #EDEDED",
"@	c #CACACA",
"#	c #C1C1C1",
"$	c #C3C3C3",
"%	c #FBFBFB",
"&	c #A8A8A8",
"*	c #ADADAD",
"=	c #767676",
"-	c #5D5D5D",
";	c #404040",
">	c #858585",
",	c #4B4B49",
"'	c #161616",
")	c #C5C5C5",
"!	c #C4C4C4",
"~	c #C0C0C0",
"{	c #BFBFBF",
"]	c #BEBEBE",
"^	c #BDBDBD",
"/	c #BBBBBB",
"(	c #C2C2C2",
"_	c #BCBCBC",
":	c #A0A0A0",
"  .........     ",
" .++++++@.#.    ",
" .+......$%&.   ",
" .+......*=-;.  ",
" .+.......>,'.  ",
" .+.........).  ",
" .+.........!.  ",
" .@.........$.  ",
" .@.........#.  ",
" .@.........~.  ",
" .@.........{.  ",
" .@.........].  ",
" .@.........^.  ",
" .@........./.  ",
" .(^^^__////:.  ",
"  ...........   "};
