/* XPM */
static char * ok_xpm[] = {
"24 24 9 1",
" 	c None",
".	c #000000",
"+	c #3D9FAA",
"@	c #389C97",
"#	c #24A2AF",
"$	c #7BEAF7",
"%	c #46D3E2",
"&	c #54CBD8",
"*	c #31AAB7",
"                        ",
"                        ",
"                        ",
"                        ",
"                        ",
"                        ",
"               ..       ",
"              .+@.      ",
"              .+#.      ",
"             .++.       ",
"       ..    .+#.       ",
"      .$%.  .++.        ",
"      .&&.. .*#.        ",
"       .&%..**.         ",
"       .&&+.*#.         ",
"        .&&**.          ",
"         .&*#.          ",
"         .&&.           ",
"          .+.           ",
"           .            ",
"                        ",
"                        ",
"                        ",
"                        "};
