/* XPM */
static char * pend_xpm[] = {
"16 16 12 1",
" 	c None",
".	c #000000",
"+	c #7775F4",
"@	c #BDBCF2",
"#	c #5350ED",
"$	c #3E3BDD",
"%	c #7E7CEF",
"&	c #1311AA",
"*	c #35431B",
"=	c #0B099B",
"-	c #4F4DD1",
";	c #5D5BEA",
"                ",
"     .          ",
"   ..+.         ",
"  .@+##.        ",
" .+$%%%.        ",
" .#&.*.         ",
" .$. .     .    ",
" .=.       ..   ",
"  ..       .@.  ",
"   .     . .%.  ",
"        .@.-%.  ",
"       .@%%%-.  ",
"       .;%--.   ",
"        .;..    ",
"         .      ",
"                "};
