/* XPM */
static char * run_xpm[] = {
"16 16 35 1",
" 	c None",
".	c #000000",
"+	c #F7F3DF",
"@	c #EED680",
"#	c #F9F6EA",
"$	c #948A6F",
"%	c #EFE4C2",
"&	c #F7EECC",
"*	c #F4E4AD",
"=	c #F9F5E4",
"-	c #303030",
";	c #D1B051",
">	c #F1DD97",
",	c #F9F5E6",
"'	c #C0A048",
")	c #F2EFE4",
"!	c #D9C374",
"~	c #E0B74C",
"{	c #D1940C",
"]	c #C3A970",
"^	c #B1933F",
"/	c #D59D1C",
"(	c #BCA36B",
"_	c #CCB76D",
":	c #DFB74A",
"<	c #986B07",
"[	c #BEA56F",
"}	c #D9A72E",
"|	c #B8820A",
"1	c #BC9F5F",
"2	c #A39256",
"3	c #D4B150",
"4	c #E2CB79",
"5	c #8D7E4A",
"6	c #C9B46B",
"         .      ",
"         ..     ",
"         .+.    ",
"      ....@#.   ",
"    ..$%&*@@=-  ",
"   ..;@@@@@@>,. ",
"   .'@@@@@@@@>).",
"   .!@~{{{{{{]. ",
"  .^@/{{{{{{(.  ",
"  ._:{<...{[.   ",
"  .@}|.  .1.    ",
"  .@{.   ..     ",
"  .23.   .      ",
"   .4.          ",
"   .56.         ",
"    ..          "};
