/* XPM */
static char * stop_xpm[] = {
"24 24 59 1",
" 	c None",
".	c #010000",
"+	c #080102",
"@	c #0E0203",
"#	c #110305",
"$	c #140505",
"%	c #150405",
"&	c #130204",
"*	c #020000",
"=	c #030000",
"-	c #F9F7F7",
";	c #210708",
">	c #270A0B",
",	c #2E0C0D",
"'	c #050001",
")	c #310D0D",
"!	c #120808",
"~	c #0E0505",
"{	c #633E3F",
"]	c #250A0A",
"^	c #190E0E",
"/	c #0F0606",
"(	c #130A0A",
"_	c #0C0404",
":	c #0F0505",
"<	c #130606",
"[	c #2C0B0D",
"}	c #0D0303",
"|	c #120909",
"1	c #090303",
"2	c #0B0303",
"3	c #0D0404",
"4	c #290A0C",
"5	c #2B0A0C",
"6	c #1B0607",
"7	c #0F0405",
"8	c #120506",
"9	c #2A0B0C",
"0	c #1A0507",
"a	c #0F0504",
"b	c #100405",
"c	c #120505",
"d	c #180707",
"e	c #24090A",
"f	c #170405",
"g	c #130505",
"h	c #22080A",
"i	c #220809",
"j	c #1D0607",
"k	c #1E0708",
"l	c #210707",
"m	c #250909",
"n	c #27090A",
"o	c #1B0507",
"p	c #1E0707",
"q	c #230909",
"r	c #280B0B",
"s	c #2C0B0C",
"t	c #2F0C0C",
"                        ",
"                        ",
"                        ",
"                        ",
"        .+@#$%&         ",
"      *=-------;>       ",
"     =-----------,      ",
"     '-----------)      ",
"    '----!---~---{]     ",
"    +---^/(-_:<---[     ",
"    }----|123:----4     ",
"    $-----233-----5     ",
"    6----377~8----9     ",
"    0---7ab-cde---4     ",
"    f----g---h----i     ",
"     j-----------4      ",
"     k-----------j      ",
"      lm-------no       ",
"        pqrsttn         ",
"                        ",
"                        ",
"                        ",
"                        ",
"                        "};
